PathFileType  4	(X/Y/Z) C:\Users\antoi\Documents\MyRepositories\mobilecap\ResultsAnalysis
DataRate	CameraRate	NumFrames	NumMarkers	Units	OrigDataRate	OrigDataStartFrame	OrigNumFrames
100.0	100.0	6	51	mm	100.0	1	256
Frame#	Time	r_knee			r_shank_antsup			r_ankle			r_calc			r_5meta			r_toe			L_knee			L_shank_antsup			L_ankle			L_calc			L_5meta			L_toe			r_sh2			r_sh3			r_sh4			L_sh2			L_sh3			r_thigh1			r_thigh2			r_thigh3			r_thigh4			r_thigh5			L_thigh1			L_thigh2			L_thigh3			L_thigh4			r.ASIS			r.PSIS			L.ASIS			L.PSIS			C7			R_Shoulder			L_Shoulder			R_Sternum			L_Sternum			R_humerus			R_elbow_med			R_elbow_lat			R_forearm			R_wrist_radius			R_wrist_ulna			L_humerus			L_elbow_med			L_elbow_lat			L_forearm			L_wrist_radius			L_wrist_ulna			R_HJC			L_HJC			R_HJC_reg			L_HJC_reg			
		X1	Y1	Z1	X2	Y2	Z2	X3	Y3	Z3	X4	Y4	Z4	X5	Y5	Z5	X6	Y6	Z6	X7	Y7	Z7	X8	Y8	Z8	X9	Y9	Z9	X10	Y10	Z10	X11	Y11	Z11	X12	Y12	Z12	X13	Y13	Z13	X14	Y14	Z14	X15	Y15	Z15	X16	Y16	Z16	X17	Y17	Z17	X18	Y18	Z18	X19	Y19	Z19	X20	Y20	Z20	X21	Y21	Z21	X22	Y22	Z22	X23	Y23	Z23	X24	Y24	Z24	X25	Y25	Z25	X26	Y26	Z26	X27	Y27	Z27	X28	Y28	Z28	X29	Y29	Z29	X30	Y30	Z30	X31	Y31	Z31	X32	Y32	Z32	X33	Y33	Z33	X34	Y34	Z34	X35	Y35	Z35	X36	Y36	Z36	X37	Y37	Z37	X38	Y38	Z38	X39	Y39	Z39	X40	Y40	Z40	X41	Y41	Z41	X42	Y42	Z42	X43	Y43	Z43	X44	Y44	Z44	X45	Y45	Z45	X46	Y46	Z46	X47	Y47	Z47	X48	Y48	Z48	X49	Y49	Z49	X50	Y50	Z50	X51	Y51	Z51	

1	0.00000000	-1151.97403	905.84236	-416.02807	-1217.23338	764.89173	-380.61870	-1289.80673	411.04177	-417.32957	-1348.34838	382.23282	-480.96515	-1157.23721	349.70017	-384.76756	-1118.31852	375.79159	-435.18368	-1177.25684	901.53235	-759.91018	-1165.88533	696.43021	-738.30512	-1308.98376	421.82615	-727.09327	-1360.38697	384.78219	-654.76782	-1177.96071	341.95000	-778.42452	-1130.47976	375.00917	-726.18428	-1248.63082	658.68074	-374.55411	-1153.92821	751.89472	-418.62531	-1181.68962	642.80557	-423.67485	-1236.29252	720.91633	-786.94436	-1272.14145	608.82408	-765.97751	-1123.43110	1200.85708	-393.59708	-1103.37420	1090.50832	-396.12345	-1162.14513	1056.87485	-384.97946	-1233.15687	1183.12888	-413.78216	-1213.96791	1066.45358	-403.86822	-1238.34962	1198.40843	-776.28762	-1231.02349	1060.82349	-780.98154	-1128.42111	1199.83123	-779.07613	-1122.53031	1064.34182	-771.42612	-1079.48314	1469.10519	-467.74070	-1269.56389	1524.04856	-536.03002	-1120.19170	1458.45408	-739.79527	-1280.98691	1525.01697	-628.32830	-1123.40129	1997.22762	-616.39763	-1046.57252	1946.26657	-450.02482	-1088.13677	1958.67387	-791.16716	-998.65340	1886.15888	-596.79744	-1002.84380	1887.39716	-651.32028	-1130.53216	1715.02522	-340.35812	-1260.91540	1609.17774	-350.22545	-1225.28394	1651.11712	-277.69481	-1033.19794	1582.86500	-343.91880	-957.97012	1557.49924	-384.96258	-959.48988	1536.89410	-352.43364	-1152.44884	1692.15394	-876.87498	-1265.85848	1621.30166	-848.49103	-1223.07085	1629.32640	-921.32088	-1033.94919	1607.31544	-843.72651	-978.40958	1602.80755	-794.85625	-971.72878	1590.46824	-827.29188	-1175.53345	1385.49689	-491.84568	-1207.64101	1382.87284	-686.67682	-1166.55812	1388.91821	-497.39626	-1188.87312	1390.80999	-677.70186	
2	0.01000000	-1149.89693	905.09042	-416.41463	-1216.03357	764.62585	-380.87624	-1289.57973	411.29997	-417.41035	-1348.32709	382.45688	-480.99740	-1157.23096	349.70620	-384.77484	-1118.35189	375.76081	-435.25537	-1175.96030	901.02841	-760.05146	-1165.10799	695.95983	-738.57972	-1308.95461	421.77844	-727.10989	-1360.44618	384.71744	-654.81220	-1177.96060	341.95940	-778.41869	-1130.51669	375.08129	-726.25359	-1247.17761	657.89209	-374.81697	-1152.34647	751.59903	-418.46735	-1180.63945	642.56871	-423.67400	-1235.27364	720.57354	-787.39357	-1271.71496	608.60201	-765.92212	-1122.23369	1200.53696	-393.87339	-1101.25425	1089.87550	-397.01407	-1160.11839	1056.52940	-384.79756	-1231.79862	1182.25436	-413.47434	-1212.13454	1065.72386	-403.89243	-1237.57376	1197.67013	-776.48531	-1229.71899	1060.21357	-781.63059	-1127.51636	1199.17326	-779.18493	-1121.34294	1063.83940	-771.67248	-1079.15828	1468.14916	-467.95767	-1268.66168	1524.14637	-536.57207	-1119.35005	1457.30092	-740.07953	-1279.96329	1524.99760	-629.05423	-1119.33786	1996.28898	-617.57865	-1042.67401	1945.12041	-450.76255	-1084.30019	1957.28879	-792.04067	-995.06106	1884.53409	-598.03869	-999.56424	1885.82387	-652.27895	-1128.29205	1714.79974	-340.74924	-1259.23198	1609.68520	-349.73824	-1223.20426	1651.85297	-277.53735	-1031.39101	1583.34473	-344.57348	-956.31772	1558.09039	-386.18482	-957.81882	1537.55668	-353.38354	-1149.81774	1691.41377	-878.20069	-1263.54042	1620.72327	-849.90349	-1220.58138	1628.59776	-922.47159	-1031.69265	1606.93609	-844.28584	-976.36224	1602.64039	-795.23967	-969.47525	1589.95323	-827.96365	-1175.61321	1385.08131	-492.09216	-1207.37268	1382.33944	-686.97866	-1166.60477	1388.51770	-497.59215	-1188.64309	1390.17764	-677.93287	
3	0.02000000	-1147.39424	904.66807	-416.32388	-1214.51203	764.51116	-381.13323	-1289.44884	411.49856	-417.42605	-1348.26194	382.75540	-481.07012	-1157.21492	349.70813	-384.77905	-1118.36398	375.69127	-435.30145	-1174.53208	900.63805	-760.26938	-1164.27544	695.44329	-738.79903	-1308.92272	421.73560	-727.14945	-1360.53082	384.62849	-654.89143	-1177.97648	341.97760	-778.43290	-1130.54899	375.16199	-726.29898	-1245.78974	657.34671	-375.08155	-1150.55753	751.19080	-418.38455	-1179.58929	642.14304	-423.34110	-1234.36582	720.16703	-787.44767	-1271.14874	608.41876	-765.96992	-1120.74797	1200.07374	-394.12698	-1099.28616	1089.38495	-397.43903	-1157.94333	1055.92221	-384.85063	-1230.32450	1181.38059	-413.16576	-1210.08849	1064.88288	-403.80168	-1236.71188	1196.93076	-776.78599	-1228.60904	1059.46905	-781.85313	-1126.69269	1198.67458	-779.31050	-1120.24974	1063.32515	-771.82264	-1078.82659	1467.29705	-467.96843	-1267.79788	1524.17279	-537.02138	-1118.56733	1456.22335	-740.46769	-1278.94603	1524.97871	-629.65988	-1115.11780	1995.16518	-618.80990	-1038.91537	1943.80915	-451.95248	-1080.35617	1955.74033	-792.97495	-991.55385	1882.62201	-599.12540	-996.11607	1884.07429	-653.26821	-1125.95378	1714.40124	-341.26453	-1257.42625	1609.48273	-349.69536	-1221.13994	1652.14765	-277.91808	-1029.55835	1583.61881	-345.43192	-954.64226	1558.26190	-387.24192	-956.03136	1537.94923	-354.27833	-1147.09297	1690.07110	-878.97706	-1261.16556	1620.04159	-851.20334	-1218.00367	1627.74389	-923.55696	-1029.36406	1606.17527	-844.79440	-974.14205	1602.12351	-795.89783	-967.22206	1589.17963	-828.53400	-1175.63382	1384.68640	-492.28094	-1207.07422	1381.83823	-687.21774	-1166.62580	1387.93164	-497.72336	-1188.35775	1389.50262	-678.31266	
4	0.03000000	-1144.45224	904.37353	-415.96927	-1212.47019	764.54681	-381.17418	-1289.34085	411.63324	-417.45214	-1348.10104	383.16076	-481.11711	-1157.17928	349.67890	-384.79322	-1118.31030	375.57101	-435.27896	-1173.04747	900.25343	-760.47969	-1163.36486	694.90427	-738.85448	-1308.88358	421.67607	-727.17886	-1360.62234	384.52320	-654.95944	-1177.99520	341.99444	-778.45136	-1130.59759	375.22333	-726.35323	-1244.51099	657.77202	-375.19954	-1148.46084	750.70056	-418.28840	-1178.30096	641.72521	-422.98097	-1233.46225	719.82384	-787.41478	-1270.46729	608.29683	-766.15239	-1119.25087	1199.49569	-394.38484	-1097.12062	1089.06438	-397.71826	-1155.62523	1055.15210	-384.99448	-1228.77188	1180.34662	-412.89121	-1207.83142	1063.87380	-403.72553	-1235.81518	1196.19820	-777.14695	-1227.51330	1058.67329	-782.02652	-1125.83546	1198.19143	-779.45241	-1119.15270	1062.84063	-771.90131	-1078.54188	1466.46062	-467.97722	-1267.01262	1524.14632	-537.44100	-1117.83358	1455.08662	-740.82109	-1277.94578	1524.95768	-630.19630	-1110.70233	1993.82507	-620.16970	-1035.04889	1942.36502	-453.31452	-1076.15646	1954.02351	-793.92174	-988.01878	1880.54116	-600.12216	-992.47016	1882.08489	-654.25265	-1123.46527	1713.76522	-341.89527	-1255.41527	1608.93065	-350.07934	-1218.98069	1652.05817	-278.65300	-1027.62064	1583.59659	-346.34222	-952.86931	1558.01125	-388.14234	-954.11199	1537.92101	-355.13323	-1144.19714	1688.48154	-879.69111	-1258.61495	1619.17431	-852.32807	-1215.30717	1626.70370	-924.63415	-1026.93445	1604.97154	-845.35704	-971.72490	1601.17117	-796.73314	-964.88908	1588.04920	-829.19973	-1175.68943	1384.28618	-492.42414	-1206.82496	1381.30253	-687.40780	-1166.70860	1387.22227	-497.93675	-1188.02330	1388.80415	-678.76746	
5	0.04000000	-1141.21344	903.83698	-415.76159	-1209.94676	764.57944	-380.98127	-1289.14419	411.88941	-417.51435	-1347.85711	383.64882	-481.00439	-1157.12219	349.62904	-384.81786	-1118.18273	375.41942	-435.30403	-1171.56677	899.73930	-760.67179	-1162.40696	694.34487	-738.79119	-1308.84854	421.57021	-727.14613	-1360.69607	384.42165	-654.99386	-1178.00308	342.00833	-778.46053	-1130.65542	375.24908	-726.41919	-1243.12652	658.85702	-375.14935	-1146.00415	750.18491	-418.02757	-1176.54057	641.52374	-422.98408	-1232.42379	719.58008	-787.66166	-1269.78853	608.17947	-766.35979	-1117.93164	1198.90795	-394.77144	-1094.71144	1088.87878	-398.11817	-1153.16546	1054.40313	-385.04377	-1227.18361	1179.03767	-412.67911	-1205.41811	1062.77119	-403.68565	-1234.90635	1195.48061	-777.67376	-1226.21352	1057.91942	-782.54465	-1124.89533	1197.58805	-779.64777	-1117.95432	1062.34724	-771.97684	-1078.35872	1465.46321	-468.17614	-1266.31001	1524.08020	-537.92341	-1117.14923	1453.75812	-740.99302	-1276.98718	1524.93456	-630.78589	-1106.12472	1992.34471	-621.56256	-1030.84838	1940.73104	-454.49770	-1071.65726	1952.16610	-795.00086	-984.26797	1878.46382	-601.18735	-988.69860	1879.85049	-655.18803	-1120.80000	1712.93250	-342.59160	-1253.20254	1608.62515	-350.56009	-1216.60318	1651.89272	-279.30248	-1025.49881	1583.20371	-347.13314	-950.95909	1557.47016	-388.99123	-952.09366	1537.45494	-355.98781	-1141.13583	1687.07237	-880.84727	-1255.90424	1618.13973	-853.32249	-1212.50136	1625.37797	-925.64660	-1024.38257	1603.43117	-846.06596	-969.14235	1599.78744	-797.53913	-962.35798	1586.38320	-830.01177	-1175.91595	1383.80923	-492.57278	-1206.72044	1380.66637	-687.60644	-1166.93124	1386.44071	-498.33524	-1187.72366	1388.10443	-679.17014	
6	0.05000000	-1137.58760	903.09920	-415.65305	-1207.05676	764.49302	-380.87358	-1288.79562	412.50395	-417.43482	-1347.60909	384.25173	-480.78630	-1157.03846	349.59763	-384.85197	-1118.05025	375.24958	-435.57766	-1169.99825	899.11455	-760.88396	-1161.46348	693.75173	-738.80409	-1308.83685	421.43711	-727.09769	-1360.76155	384.32948	-655.07571	-1178.01055	342.02843	-778.47352	-1130.69538	375.25457	-726.44710	-1241.31786	659.41460	-375.02959	-1143.11579	749.60663	-417.63023	-1174.37637	641.39032	-423.10558	-1231.29076	719.27939	-787.98129	-1269.12111	607.97896	-766.46580	-1116.42209	1198.45941	-395.32881	-1092.32686	1088.59358	-398.35324	-1150.46590	1053.61107	-385.06593	-1225.51775	1177.53626	-412.52249	-1202.80008	1061.60692	-403.60129	-1233.97179	1194.69470	-778.42515	-1224.79125	1057.14373	-783.12094	-1123.95916	1197.00812	-779.93212	-1116.67033	1061.75506	-772.05827	-1078.30506	1464.25027	-468.44025	-1265.64839	1523.93421	-538.42582	-1116.54430	1452.27601	-741.02133	-1276.09835	1524.88426	-631.42342	-1101.40644	1990.71763	-622.84863	-1026.46082	1938.80384	-455.59832	-1066.95002	1950.08991	-796.28630	-980.32689	1876.20101	-602.29014	-984.85062	1877.39173	-656.10899	-1117.96777	1711.93051	-343.33691	-1250.86836	1608.39351	-350.98655	-1214.04846	1651.66043	-279.84263	-1023.22832	1582.39310	-347.89079	-948.92011	1556.59101	-389.85781	-949.98037	1536.58234	-356.83780	-1137.95259	1685.46536	-882.02828	-1253.35970	1617.05337	-854.34966	-1209.51109	1623.78314	-926.57134	-1021.64092	1601.52211	-846.86665	-966.36951	1597.90824	-798.29651	-959.54307	1583.90047	-830.58966	-1176.33095	1383.20416	-492.72688	-1206.76213	1379.93926	-687.81719	-1167.26342	1385.53350	-498.78398	-1187.56717	1387.37915	-679.47439	
